#!OML:ASF F:\VICON\USERDATA\INSTALL\rory3\rory3.ASF
:FULLY-SPECIFIED
:DEGREES
313
root 1.42423 18.1702 0.979397 195.03 84.8934 197.083
lowerback 11.365 1.1122 -0.228652
upperback 0.530845 1.50729 0.406195
thorax -5.83782 0.766252 0.308988
lowerneck -21.1436 -6.77489 -12.8401
upperneck 27.7259 -7.51592 8.53326
head 13.8165 -3.37267 4.22738
rclavicle 1.11257e-014 -1.68967e-015
rhumerus -32.9195 -12.6364 -82.7669
rradius 27.9452
rwrist 7.83311
rhand -15.7804 8.53146
rfingers 7.12502
rthumb 10.412 -21.1907
lclavicle 1.11257e-014 -1.68967e-015
lhumerus -36.8984 6.59815 83.1656
lradius 35.5074
lwrist -3.77064
lhand -18.0671 23.9073
lfingers 7.12502
lthumb 8.20558 53.728
rfemur -5.1663 3.74818 23.8129
rtibia 21.7943
rfoot -11.0795 -0.459836
rtoes 8.58379
lfemur -0.0315916 -5.32384 -19.434
ltibia 14.367
lfoot -8.24355 -5.28658
ltoes -0.600746
314
root 1.41677 18.1782 0.995554 194.64 84.525 196.713
lowerback 11.4698 1.08057 -0.0353955
upperback 0.589745 1.49038 0.378259
thorax -5.82855 0.75317 0.172114
lowerneck -21.1914 -6.71833 -12.7163
upperneck 27.7489 -7.46324 8.50873
head 13.8213 -3.33793 4.20722
rclavicle 9.8709e-015 -2.5842e-015
rhumerus -32.699 -12.3468 -83.1095
rradius 27.9431
rwrist 7.67253
rhand -15.7673 8.49162
rfingers 7.12502
rthumb 10.4246 -21.2299
lclavicle 9.8709e-015 -2.5842e-015
lhumerus -36.8468 6.36269 83.1021
lradius 35.922
lwrist -3.4985
lhand -17.7811 23.7592
lfingers 7.12502
lthumb 8.48158 53.5688
rfemur -4.97217 3.49399 23.9471
rtibia 21.4267
rfoot -10.9407 -0.642701
rtoes 9.22842
lfemur -0.339929 -5.8749 -19.2779
ltibia 14.9544
lfoot -8.33091 -5.2417
ltoes 2.79883
315
root 1.40812 18.1853 1.00926 193.589 84.0901 195.651
lowerback 11.5606 1.07737 0.140676
upperback 0.654116 1.50944 0.350552
thorax -5.80633 0.758426 0.0396246
lowerneck -21.2887 -6.77386 -12.7672
upperneck 27.8112 -7.52567 8.54545
head 13.8817 -3.36288 4.21995
rclavicle 3.8763e-015 4.77083e-015
rhumerus -32.5114 -11.8726 -83.4378
rradius 28.0433
rwrist 7.26106
rhand -15.8957 8.50121
rfingers 7.12502
rthumb 10.3007 -21.2265
lclavicle 3.8763e-015 4.77083e-015
lhumerus -36.7305 6.02638 83.1892
lradius 36.3272
lwrist -3.17705
lhand -17.903 23.8576
lfingers 7.12502
lthumb 8.36393 53.672
rfemur -4.83595 3.15545 24.0005
rtibia 21.0737
rfoot -10.7693 -0.790644
rtoes 9.8483
lfemur -0.674965 -6.5935 -19.191
ltibia 15.4934
lfoot -8.41515 -5.05362
ltoes 6.57808
316
root 1.39756 18.1923 1.02245 193.09 83.5843 195.064
lowerback 11.5937 1.06617 0.345965
upperback 0.680039 1.52423 0.377339
thorax -5.79295 0.761224 -0.0507865
lowerneck -21.3705 -6.83216 -12.9312
upperneck 27.9103 -7.58351 8.67901
head 13.9653 -3.3848 4.29473
rclavicle -3.52222e-015 -4.27387e-015
rhumerus -32.3698 -11.3623 -83.7038
rradius 28.238
rwrist 6.90117
rhand -15.9995 8.20092
rfingers 7.12502
rthumb 10.2007 -21.5318
lclavicle -3.52222e-015 -4.27387e-015
lhumerus -36.6148 5.76605 83.3129
lradius 36.7065
lwrist -2.95438
lhand -18.2426 24.0214
lfingers 7.12502
lthumb 8.03621 53.8486
rfemur -4.84521 2.78381 24.1045
rtibia 20.8174
rfoot -10.6474 -0.937325
rtoes 10.3749
lfemur -1.14227 -7.12287 -19.0185
ltibia 15.9606
lfoot -8.38 -5.15881
ltoes 9.09194
317
root 1.38464 18.1953 1.03232 192.261 83.2568 194.181
lowerback 11.7245 1.0814 0.435537
upperback 0.697685 1.55965 0.399307
thorax -5.84573 0.776854 -0.0866496
lowerneck -21.4488 -6.79178 -12.8798
upperneck 27.9593 -7.50272 8.58868
head 13.9846 -3.35422 4.26549
rclavicle 2.6339e-014 -6.65929e-015
rhumerus -32.2145 -11.0836 -83.8949
rradius 28.3489
rwrist 6.9859
rhand -15.8689 8.1244
rfingers 7.12502
rthumb 10.3267 -21.6021
lclavicle 2.6339e-014 -6.65929e-015
lhumerus -36.4954 5.57799 83.423
lradius 37.0018
lwrist -2.74147
lhand -18.3745 24.1845
lfingers 7.12502
lthumb 7.90887 54.0165
rfemur -4.91197 2.46613 24.0867
rtibia 20.716
rfoot -10.5616 -0.987521
rtoes 10.5404
lfemur -1.53266 -7.32573 -18.9717
ltibia 16.3708
lfoot -8.38935 -5.38744
ltoes 10.3614
318
root 1.36827 18.1899 1.04439 191.573 83.0637 193.418
lowerback 11.9095 1.12818 0.503203
upperback 0.681318 1.6321 0.386598
thorax -5.96411 0.810012 -0.154475
lowerneck -21.458 -6.7077 -12.7321
upperneck 27.9207 -7.37794 8.42991
head 13.9371 -3.3051 4.1977
rclavicle 2.68981e-015 8.94531e-016
rhumerus -32.0879 -11.0948 -84.049
rradius 28.3786
rwrist 7.3032
rhand -15.7085 8.37301
rfingers 7.12502
rthumb 10.4813 -21.3457
lclavicle 2.68981e-015 8.94531e-016
lhumerus -36.4171 5.55929 83.4106
lradius 37.2423
lwrist -2.66551
lhand -18.2528 23.8603
lfingers 7.12502
lthumb 8.02634 53.6879
rfemur -5.26746 2.21655 24.0462
rtibia 21.0391
rfoot -10.507 -1.08844
rtoes 12.7157
lfemur -1.77945 -7.31454 -18.9682
ltibia 16.4543
lfoot -8.44517 -5.5226
ltoes 10.1993
319
root 1.35199 18.1833 1.05546 190.561 82.739 192.119
lowerback 11.9067 1.19846 0.571093
upperback 0.565121 1.72906 0.329264
thorax -6.08113 0.852899 -0.270651
lowerneck -21.3558 -6.65278 -12.5767
upperneck 27.8882 -7.31825 8.29544
head 13.8789 -3.28101 4.12786
rclavicle 2.97307e-014 -6.85807e-015
rhumerus -32.1065 -11.1553 -84.1515
rradius 28.4812
rwrist 7.45797
rhand -15.6521 8.51146
rfingers 7.12502
rthumb 10.5358 -21.2045
lclavicle 2.97307e-014 -6.85807e-015
lhumerus -36.4205 5.54031 83.3572
lradius 37.5298
lwrist -2.79031
lhand -18.1226 23.6631
lfingers 7.12502
lthumb 8.15196 53.4858
rfemur -5.90031 1.91226 23.9574
rtibia 21.5238
rfoot -10.6498 -1.23319
rtoes 14.349
lfemur -2.22898 -7.26574 -19.0012
ltibia 16.4418
lfoot -8.62364 -5.58314
ltoes 8.0746
320
root 1.33438 18.1721 1.06392 184.593 82.3005 185.572
lowerback 11.62 1.3074 0.0145688
upperback 0.400611 1.77462 0.0339917
thorax -6.10114 0.884285 -0.269807
lowerneck -21.2409 -6.63564 -12.3708
upperneck 27.8901 -7.34568 8.19888
head 13.8439 -3.28331 4.04994
rclavicle 3.34455e-014 -4.07509e-015
rhumerus -32.2167 -11.1484 -84.3195
rradius 28.722
rwrist 7.43652
rhand -15.6606 8.72964
rfingers 7.12502
rthumb 10.5276 -20.9867
lclavicle 3.34455e-014 -4.07509e-015
lhumerus -36.4 5.09771 83.4117
lradius 37.9117
lwrist -2.66068
lhand -18.0415 23.8466
lfingers 7.12502
lthumb 8.23027 53.6663
rfemur -6.71247 1.36613 23.0824
rtibia 21.8774
rfoot -10.8045 -1.24536
rtoes 14.2142
lfemur -2.98993 -6.84937 -19.8318
ltibia 16.391
lfoot -9.05398 -5.74032
ltoes 0.381963
321
root 1.32521 18.1427 1.09887 187.959 81.6714 189.208
lowerback 11.9977 1.25281 0.484119
upperback 0.521007 1.78469 0.245801
thorax -6.17829 0.880556 -0.321628
lowerneck -21.3951 -6.60863 -12.3624
upperneck 27.9358 -7.29613 8.21613
head 13.8898 -3.25512 4.06523
rclavicle -4.31487e-014 1.14301e-015
rhumerus -32.1829 -10.8922 -84.6042
rradius 29.0337
rwrist 7.30564
rhand -15.6467 8.75908
rfingers 7.12502
rthumb 10.541 -20.9566
lclavicle -4.31487e-014 1.14301e-015
lhumerus -36.278 4.9949 83.447
lradius 38.2284
lwrist -2.49023
lhand -18.0792 23.8485
lfingers 7.12502
lthumb 8.19394 53.6696
rfemur -6.5445 1.39852 23.8808
rtibia 21.9981
rfoot -10.8859 -1.9096
rtoes 14.3734
lfemur -3.08983 -5.68619 -19.2178
ltibia 16.5781
lfoot -10.262 -5.87223
ltoes -14.7573
